<?xml version="1.0" standalone="no"?>
<!DOCTYPE svg PUBLIC "-//W3C//DTD SVG 20010904//EN"
 "http://www.w3.org/TR/2001/REC-SVG-20010904/DTD/svg10.dtd">
<svg version="1.0" xmlns="http://www.w3.org/2000/svg"
 width="69.000000pt" height="69.000000pt" viewBox="0 0 69.000000 69.000000"
 preserveAspectRatio="xMidYMid meet">

<g transform="translate(0.000000,69.000000) scale(0.100000,-0.100000)"
 stroke="none" >
<path d="M263 670 c-105 -16 -154 -73 -175 -203 -9 -61 -9 -90 3 -149 7 -40
14 -84 15 -98 1 -45 16 -95 33 -114 68 -78 315 -78 382 0 17 20 41 103 33 115
-2 4 3 38 12 76 29 124 3 276 -57 329 -44 39 -152 59 -246 44z m-13 -182 l52
-21 -34 -18 c-18 -10 -43 -18 -55 -19 -31 0 -78 42 -70 63 9 23 44 21 107 -5z
m267 5 c8 -19 -38 -63 -67 -63 -11 0 -36 8 -56 17 l-36 18 48 22 c60 27 102
29 111 6z m-73 -215 c20 -11 20 -12 -9 -24 -61 -26 -255 -10 -226 19 27 27
188 30 235 5z"/>
</g>
</svg>
